SRRun01_grf
version=1
nRows=24
nColumns=19
inDegrees=no
endheader
time	ground_force_r_vx	ground_force_r_vy	ground_force_r_vz	ground_force_r_px	ground_force_r_py	ground_force_r_pz	ground_force_r_mx	ground_force_r_my	ground_force_r_mz	ground_force_l_vx	ground_force_l_vy	ground_force_l_vz	ground_force_l_px	ground_force_l_py	ground_force_l_pz	ground_force_l_mx	ground_force_l_my	ground_force_l_mz
    144.99800000	      0.00000000	      0.00000000	      0.00000000	      0.00000000	      0.00000000	      0.00000000	      0.00000000	      0.00000000	      0.00000000	    121.98437662	    407.52732476	    -31.49324243	      0.66507559	      0.00000000	     -0.30214889	      0.00000416	     12.62590849	      0.00000824
    144.99900000	      0.00000000	      0.00000000	      0.00000000	      0.00000000	      0.00000000	      0.00000000	      0.00000000	      0.00000000	      0.00000000	    115.91230452	    393.23915862	    -29.87422741	      0.66352721	      0.00000000	     -0.30267146	      0.00000425	     14.24769069	      0.00000861
    145.00000000	      0.00000000	      0.00000000	      0.00000000	      0.00000000	      0.00000000	      0.00000000	      0.00000000	      0.00000000	      0.00000000	    110.08348346	    378.96351992	    -27.48842047	      0.66162782	      0.00000000	     -0.30334024	      0.00000436	     14.34977537	      0.00000901
    145.00100000	      0.00000000	      0.00000000	      0.00000000	      0.00000000	      0.00000000	      0.00000000	      0.00000000	      0.00000000	      0.00000000	    104.85130224	    364.72995836	    -24.41566722	      0.65930221	      0.00000000	     -0.30410784	      0.00000448	     13.00339247	      0.00000942
    145.00200000	      0.00000000	      0.00000000	      0.00000000	      0.00000000	      0.00000000	      0.00000000	      0.00000000	      0.00000000	      0.00000000	    100.50198547	    350.58474589	    -20.80011964	      0.65651566	      0.00000000	     -0.30491852	      0.00000458	     10.40270774	      0.00000978
    145.00300000	      0.00000000	      0.00000000	      0.00000000	      0.00000000	      0.00000000	      0.00000000	      0.00000000	      0.00000000	      0.00000000	     97.22577859	    336.58627108	    -16.84217186	      0.65327558	      0.00000000	     -0.30571497	      0.00000464	      6.84056156	      0.00001008
    145.00400000	      0.00000000	      0.00000000	      0.00000000	      0.00000000	      0.00000000	      0.00000000	      0.00000000	      0.00000000	      0.00000000	     95.09749058	    322.79862020	    -12.78482140	      0.64962721	      0.00000000	     -0.30644557	      0.00000466	      2.67716250	      0.00001028
    145.00500000	      0.00000000	      0.00000000	      0.00000000	      0.00000000	      0.00000000	      0.00000000	      0.00000000	      0.00000000	      0.00000000	     94.06845497	    309.28462448	     -8.89513020	      0.64564402	      0.00000000	     -0.30707126	      0.00000462	     -1.69489951	      0.00001038
    145.00600000	      0.00000000	      0.00000000	      0.00000000	      0.00000000	      0.00000000	      0.00000000	      0.00000000	      0.00000000	      0.00000000	     93.97090796	    296.09954368	     -5.44210965	      0.64141477	      0.00000000	     -0.30757067	      0.00000452	     -5.88599433	      0.00001036
    145.00700000	      0.00000000	      0.00000000	      0.00000000	      0.00000000	      0.00000000	      0.00000000	      0.00000000	      0.00000000	      0.00000000	     94.53457876	    283.28633635	     -2.67287611	      0.63703019	      0.00000000	     -0.30794280	      0.00000437	     -9.54214004	      0.00001023
    145.00800000	      0.00000000	      0.00000000	      0.00000000	      0.00000000	      0.00000000	      0.00000000	      0.00000000	      0.00000000	      0.00000000	     95.41409219	    270.87327453	     -0.78919778	      0.63257270	      0.00000000	     -0.30820628	      0.00000416	    -12.37255295	      0.00000999
    145.00900000	      0.00000000	      0.00000000	      0.00000000	      0.00000000	      0.00000000	      0.00000000	      0.00000000	      0.00000000	      0.00000000	     96.22468561	    258.87439411	      0.07334233	      0.62811258	      0.00000000	     -0.30839543	      0.00000391	    -14.17020670	      0.00000964
    145.01000000	      0.00000000	      0.00000000	      0.00000000	      0.00000000	      0.00000000	      0.00000000	      0.00000000	      0.00000000	      0.00000000	     96.58279580	    247.29271691	     -0.13868849	      0.62371197	      0.00000000	     -0.30855320	      0.00000363	    -14.82424537	      0.00000920
    145.01100000	      0.00000000	      0.00000000	      0.00000000	      0.00000000	      0.00000000	      0.00000000	      0.00000000	      0.00000000	      0.00000000	     96.14737968	    236.12538265	     -1.38757900	      0.61943533	      0.00000000	     -0.30872251	      0.00000333	    -14.32387284	      0.00000868
    145.01200000	      0.00000000	      0.00000000	      0.00000000	      0.00000000	      0.00000000	      0.00000000	      0.00000000	      0.00000000	      0.00000000	     94.65753056	    225.36918701	     -3.54401374	      0.61536200	      0.00000000	     -0.30893766	      0.00000304	    -12.75412517	      0.00000812
    145.01300000	      0.00000000	      0.00000000	      0.00000000	      0.00000000	      0.00000000	      0.00000000	      0.00000000	      0.00000000	      0.00000000	     91.96214444	    215.02486692	     -6.39577678	      0.61159444	      0.00000000	     -0.30921765	      0.00000275	    -10.28454673	      0.00000752
    145.01400000	      0.00000000	      0.00000000	      0.00000000	      0.00000000	      0.00000000	      0.00000000	      0.00000000	      0.00000000	      0.00000000	     88.03809888	    205.09885529	     -9.66513855	      0.60825606	      0.00000000	     -0.30956274	      0.00000249	     -7.15210854	      0.00000692
    145.01500000	      0.00000000	      0.00000000	      0.00000000	      0.00000000	      0.00000000	      0.00000000	      0.00000000	      0.00000000	      0.00000000	     82.99457415	    195.60199541	    -13.03336230	      0.60547473	      0.00000000	     -0.30995496	      0.00000227	     -3.63981697	      0.00000635
    145.01600000	      0.00000000	      0.00000000	      0.00000000	      0.00000000	      0.00000000	      0.00000000	      0.00000000	      0.00000000	      0.00000000	     77.06269329	    186.54558497	    -16.16984856	      0.60335214	      0.00000000	     -0.31036225	      0.00000209	     -0.05256459	      0.00000582
    145.01700000	      0.00000000	      0.00000000	      0.00000000	      0.00000000	      0.00000000	      0.00000000	      0.00000000	      0.00000000	      0.00000000	     70.57141707	    177.93581977	    -18.76284850	      0.60192410	      0.00000000	     -0.31074560	      0.00000195	      3.30806666	      0.00000535
    145.01800000	      0.00000000	      0.00000000	      0.00000000	      0.00000000	      0.00000000	      0.00000000	      0.00000000	      0.00000000	      0.00000000	     63.91234007	    169.76806623	    -20.54857730	      0.60112089	      0.00000000	     -0.31106773	      0.00000185	      6.16825152	      0.00000497
    145.01900000	      0.00000000	      0.00000000	      0.00000000	      0.00000000	      0.00000000	      0.00000000	      0.00000000	      0.00000000	      0.00000000	     57.49741072	    162.02242037	    -21.33586735	      0.60073927	      0.00000000	     -0.31130166	      0.00000178	      8.30388109	      0.00000467
    145.02000000	      0.00000000	      0.00000000	      0.00000000	      0.00000000	      0.00000000	      0.00000000	      0.00000000	      0.00000000	      0.00000000	     51.71444950	    154.66175703	    -21.02397021	      0.60043828	      0.00000000	     -0.31143757	      0.00000175	      9.55847799	      0.00000446
    145.02100000	      0.00000000	      0.00000000	      0.00000000	      0.00000000	      0.00000000	      0.00000000	      0.00000000	      0.00000000	      0.00000000	     46.88559105	    147.63295612	    -19.61166559	      0.59976800	      0.00000000	     -0.31148627	      0.00000174	      9.85573448	      0.00000432
